<?xml version="1.0" encoding="UTF-8"?>
<svg id="Layer_1" data-name="Layer 1" xmlns="http://www.w3.org/2000/svg" viewBox="0 0 422.96 422.96">
  <defs>
    <style>
      .cls-1 {
        fill: #fff;
      }

      .cls-2 {
        fill: #022aa4;
      }
    </style>
  </defs>
  <rect class="cls-2" width="422.96" height="422.96"/>
  <g>
    <g>
      <polygon class="cls-1" points="211.88 146.16 211.88 230.33 137.76 230.33 137.76 171.12 120.16 176.39 120.16 247.92 229.47 247.92 229.47 171.05 249.97 177.37 249.97 247.92 267.56 247.92 267.56 182.8 285.21 188.94 285.21 247.92 302.8 247.92 302.8 175.96 211.88 146.16"/>
      <rect class="cls-1" x="68.2" y="263.88" width="286.57" height="17.73"/>
      <polygon class="cls-1" points="340.45 178.5 340.45 221.84 354.01 221.84 354.01 247.93 322 247.93 322 161.63 212.52 127.22 100.97 161.72 100.97 247.93 68.95 247.93 68.95 221.84 82.42 221.84 82.42 178.5 68.95 178.5 68.95 151 82.42 146.83 83.23 146.58 100.15 141.35 100.97 141.1 212.58 106.58 322 140.96 322.71 141.18 339.73 146.54 340.45 146.78 354.01 151.03 354.01 178.5 340.45 178.5"/>
    </g>
    <path class="cls-1" d="m75.9,312.93c.55,0,1.05-.09,1.48-.27s.8-.45,1.1-.79c.3-.34.53-.76.69-1.25.16-.49.24-1.05.24-1.68v-10.53h4.13v10.53c0,1.09-.18,2.09-.53,3s-.86,1.7-1.52,2.36-1.46,1.17-2.4,1.54c-.94.37-2.01.55-3.19.55s-2.25-.18-3.2-.55c-.94-.37-1.75-.88-2.4-1.54-.66-.66-1.16-1.44-1.51-2.36-.35-.91-.52-1.91-.52-3v-10.53h4.13v10.52c0,.63.08,1.19.24,1.68.16.49.39.91.69,1.26s.67.61,1.1.79c.44.18.93.27,1.48.27Z"/>
    <path class="cls-1" d="m104.73,298.43c.12.02.23.05.33.09s.19.11.28.19c.09.08.19.19.31.33l8.45,10.68c-.03-.34-.06-.67-.07-.99-.02-.32-.02-.62-.02-.91v-9.41h3.64v17.78h-2.15c-.32,0-.59-.05-.81-.15-.22-.1-.43-.28-.63-.54l-8.39-10.59c.02.31.04.61.06.91s.02.58.02.84v9.53h-3.64v-17.78h2.17c.18,0,.33,0,.45.02Z"/>
    <path class="cls-1" d="m145.92,316.19h-4.15v-17.78h4.15v17.78Z"/>
    <path class="cls-1" d="m177.39,309.02c.15.33.29.68.43,1.03.14-.36.28-.71.44-1.04s.31-.67.48-.98l4.56-8.99c.08-.15.16-.27.25-.36.09-.09.18-.15.29-.19.11-.04.23-.06.36-.06h3.62v17.77h-3.64v-10.23c0-.5.02-1.03.07-1.61l-4.71,9.14c-.15.28-.34.5-.59.65s-.53.22-.85.22h-.56c-.32,0-.6-.07-.85-.22s-.45-.36-.59-.65l-4.74-9.15c.03.28.06.57.07.85.02.28.02.54.02.78v10.23h-3.64v-17.77h3.62c.13,0,.25.02.36.06s.2.1.29.19c.09.09.17.21.25.36l4.58,9.03c.16.31.32.63.47.97Z"/>
    <path class="cls-1" d="m220.8,316.19h-3.2c-.36,0-.65-.08-.88-.25s-.39-.38-.48-.64l-1.05-3.1h-6.76l-1.05,3.1c-.08.23-.24.43-.48.62-.24.18-.52.27-.87.27h-3.22l6.88-17.78h4.22l6.88,17.78Zm-11.42-6.8h4.86l-1.64-4.87c-.11-.31-.23-.67-.37-1.09s-.28-.87-.42-1.36c-.13.5-.26.96-.4,1.38-.14.42-.27.79-.39,1.1l-1.64,4.85Z"/>
    <path class="cls-1" d="m241.94,305.6h.66c.61,0,1.05-.19,1.32-.57l4-5.81c.22-.32.47-.53.75-.65.28-.11.62-.17,1.03-.17h3.59l-5.27,7.19c-.19.26-.38.48-.59.65-.2.17-.41.31-.62.43.31.11.59.27.85.47s.49.47.7.8l5.37,8.25h-3.69c-.24,0-.44-.02-.6-.05-.17-.03-.31-.08-.43-.15-.12-.06-.23-.14-.32-.24s-.17-.2-.26-.32l-4.03-6.19c-.15-.23-.33-.39-.56-.48-.22-.09-.53-.14-.91-.14h-1v7.57h-4.13v-17.78h4.13v7.2Z"/>
    <path class="cls-1" d="m285.48,298.4v3.17h-7.3v4.15h5.59v3.05h-5.59v4.24h7.3v3.17h-11.45v-17.78h11.45Z"/>
    <path class="cls-1" d="m310.58,309.61v6.58h-4.13v-17.78h5.79c1.29,0,2.38.13,3.29.4.91.26,1.65.63,2.22,1.1.57.47.99,1.03,1.25,1.67.26.64.39,1.34.39,2.1,0,.58-.08,1.12-.23,1.64-.15.51-.38.99-.69,1.42s-.68.82-1.12,1.17c-.44.34-.95.62-1.53.84.28.14.54.31.78.51.24.2.45.45.63.74l3.78,6.19h-3.74c-.69,0-1.19-.26-1.49-.78l-2.95-5.16c-.13-.23-.28-.39-.46-.49-.18-.1-.42-.15-.74-.15h-1.05Zm0-2.84h1.66c.56,0,1.04-.07,1.43-.21.39-.14.72-.34.97-.59.25-.25.43-.55.55-.88.11-.34.17-.7.17-1.09,0-.78-.25-1.39-.76-1.83-.51-.44-1.3-.66-2.36-.66h-1.66v5.27Z"/>
    <path class="cls-1" d="m354.77,298.4v3.27h-5v14.51h-4.13v-14.51h-5v-3.27h14.13Z"/>
  </g>
</svg>