<?xml version="1.0" encoding="UTF-8"?>
<svg id="Layer_1" data-name="Layer 1" xmlns="http://www.w3.org/2000/svg" viewBox="0 0 1366 768">
  <defs>
    <style>
      .cls-1 {
        fill: #fff;
      }

      .cls-2 {
        font-family: Lato-BoldItalic, Lato;
        font-size: 48px;
        font-style: italic;
        font-weight: 700;
      }

      .cls-2, .cls-3 {
        fill: #022aa4;
      }

      .cls-4 {
        letter-spacing: -.03em;
      }

      .cls-5 {
        fill: #c4ac5f;
      }

      .cls-6 {
        letter-spacing: -.1em;
      }

      .cls-7 {
        letter-spacing: 0em;
      }
    </style>
  </defs>
  <rect class="cls-5" x="341.53" y="82.23" width="817.83" height="149.7"/>
  <g>
    <rect class="cls-3" x="191.83" y="82.23" width="149.7" height="149.7"/>
    <g>
      <g>
        <polygon class="cls-1" points="266.82 133.96 266.82 163.75 240.58 163.75 240.58 142.79 234.36 144.66 234.36 169.98 273.04 169.98 273.04 142.77 280.3 145.01 280.3 169.98 286.53 169.98 286.53 146.93 292.77 149.1 292.77 169.98 299 169.98 299 144.51 266.82 133.96"/>
        <rect class="cls-1" x="215.97" y="175.62" width="101.42" height="6.28"/>
        <polygon class="cls-1" points="312.32 145.41 312.32 160.75 317.12 160.75 317.12 169.98 305.79 169.98 305.79 139.43 267.05 127.26 227.57 139.47 227.57 169.98 216.23 169.98 216.23 160.75 221 160.75 221 145.41 216.23 145.41 216.23 135.67 221 134.2 221.29 134.11 227.28 132.26 227.57 132.17 267.07 119.95 305.79 132.12 306.05 132.2 312.07 134.1 312.32 134.18 317.12 135.68 317.12 145.41 312.32 145.41"/>
      </g>
      <path class="cls-1" d="m218.69,192.98c.2,0,.37-.03.52-.1s.28-.16.39-.28c.11-.12.19-.27.24-.44.06-.17.08-.37.08-.59v-3.73h1.46v3.73c0,.39-.06.74-.19,1.06s-.3.6-.54.83-.52.41-.85.54c-.33.13-.71.19-1.13.19s-.8-.06-1.13-.19c-.33-.13-.62-.31-.85-.54s-.41-.51-.54-.83c-.12-.32-.19-.68-.19-1.06v-3.73h1.46v3.72c0,.22.03.42.08.59.06.17.14.32.24.44s.24.22.39.28c.15.06.33.1.52.1Z"/>
      <path class="cls-1" d="m228.9,187.85s.08.02.12.03.07.04.1.07c.03.03.07.07.11.12l2.99,3.78c-.01-.12-.02-.24-.03-.35,0-.11,0-.22,0-.32v-3.33h1.29v6.29h-.76c-.11,0-.21-.02-.29-.05-.08-.03-.15-.1-.22-.19l-2.97-3.75c0,.11.02.22.02.32s0,.2,0,.3v3.37h-1.29v-6.29h.77c.06,0,.12,0,.16,0Z"/>
      <path class="cls-1" d="m243.48,194.14h-1.47v-6.29h1.47v6.29Z"/>
      <path class="cls-1" d="m254.61,191.6c.05.12.1.24.15.36.05-.13.1-.25.16-.37s.11-.24.17-.35l1.62-3.18c.03-.05.06-.1.09-.13.03-.03.06-.05.1-.07.04-.01.08-.02.13-.02h1.28v6.29h-1.29v-3.62c0-.18,0-.37.03-.57l-1.67,3.24c-.05.1-.12.18-.21.23s-.19.08-.3.08h-.2c-.11,0-.21-.03-.3-.08s-.16-.13-.21-.23l-1.68-3.24c.01.1.02.2.03.3,0,.1,0,.19,0,.27v3.62h-1.29v-6.29h1.28s.09,0,.13.02.07.04.1.07c.03.03.06.07.09.13l1.62,3.2c.06.11.11.22.17.34Z"/>
      <path class="cls-1" d="m269.97,194.14h-1.13c-.13,0-.23-.03-.31-.09s-.14-.13-.17-.23l-.37-1.1h-2.39l-.37,1.1c-.03.08-.09.15-.17.22-.08.06-.19.1-.31.1h-1.14l2.44-6.29h1.49l2.44,6.29Zm-4.04-2.41h1.72l-.58-1.72c-.04-.11-.08-.24-.13-.39s-.1-.31-.15-.48c-.05.18-.09.34-.14.49-.05.15-.1.28-.14.39l-.58,1.71Z"/>
      <path class="cls-1" d="m277.46,190.39h.23c.22,0,.37-.07.47-.2l1.42-2.06c.08-.11.17-.19.27-.23.1-.04.22-.06.37-.06h1.27l-1.87,2.54c-.07.09-.14.17-.21.23-.07.06-.15.11-.22.15.11.04.21.1.3.17s.17.16.25.28l1.9,2.92h-1.3c-.08,0-.15,0-.21-.02-.06-.01-.11-.03-.15-.05-.04-.02-.08-.05-.11-.08s-.06-.07-.09-.11l-1.43-2.19c-.05-.08-.12-.14-.2-.17-.08-.03-.19-.05-.32-.05h-.35v2.68h-1.46v-6.29h1.46v2.55Z"/>
      <path class="cls-1" d="m292.87,187.84v1.12h-2.58v1.47h1.98v1.08h-1.98v1.5h2.58v1.12h-4.05v-6.29h4.05Z"/>
      <path class="cls-1" d="m301.75,191.81v2.33h-1.46v-6.29h2.05c.46,0,.84.05,1.16.14.32.09.58.22.79.39.2.17.35.36.44.59.09.23.14.48.14.74,0,.2-.03.4-.08.58-.05.18-.14.35-.24.5s-.24.29-.4.41c-.16.12-.34.22-.54.3.1.05.19.11.27.18.08.07.16.16.22.26l1.34,2.19h-1.32c-.24,0-.42-.09-.53-.28l-1.05-1.83c-.05-.08-.1-.14-.16-.17-.06-.03-.15-.05-.26-.05h-.37Zm0-1.01h.59c.2,0,.37-.03.51-.08.14-.05.25-.12.34-.21.09-.09.15-.19.19-.31.04-.12.06-.25.06-.39,0-.28-.09-.49-.27-.65-.18-.16-.46-.23-.84-.23h-.59v1.87Z"/>
      <path class="cls-1" d="m317.39,187.84v1.16h-1.77v5.14h-1.46v-5.14h-1.77v-1.16h5Z"/>
    </g>
  </g>
  <text class="cls-2" transform="translate(413.06 171.75)"><tspan x="0" y="0"> </tspan><tspan class="cls-6" x="9.26" y="0">Y</tspan><tspan x="33.65" y="0">our Campus, </tspan><tspan class="cls-6" x="292.53" y="0">Y</tspan><tspan class="cls-7" x="316.91" y="0">our Mar</tspan><tspan class="cls-4" x="477.35" y="0">k</tspan><tspan class="cls-7" x="500.46" y="0">etplace</tspan></text>
</svg>